<svg xmlns="http://www.w3.org/2000/svg" xmlns:xlink="http://www.w3.org/1999/xlink" width="540" zoomAndPan="magnify" viewBox="0 0 404.88 404.99999" height="540" preserveAspectRatio="xMidYMid meet" version="1.0"><defs><clipPath id="e4ce4479ea"><path d="M 10 11.699219 L 196 11.699219 L 196 96 L 10 96 Z M 10 11.699219 " clip-rule="nonzero"/></clipPath><clipPath id="c564388a35"><path d="M 182 11.699219 L 330 11.699219 L 330 74 L 182 74 Z M 182 11.699219 " clip-rule="nonzero"/></clipPath><clipPath id="495a22f268"><path d="M 342 167 L 404.761719 167 L 404.761719 248 L 342 248 Z M 342 167 " clip-rule="nonzero"/></clipPath><clipPath id="5325fa39a8"><path d="M 180 243 L 404.761719 243 L 404.761719 341 L 180 341 Z M 180 243 " clip-rule="nonzero"/></clipPath></defs><path fill="#5d2bff" d="M 11.65625 239.945312 C 8.800781 239.523438 5.851562 239.054688 2.886719 238.660156 C 1.964844 238.539062 1.640625 238.144531 1.707031 237.234375 C 1.839844 235.375 1.871094 233.503906 2.015625 231.644531 C 2.972656 219.4375 4.085938 207.242188 5.761719 195.105469 C 6.78125 187.71875 7.933594 180.351562 9.265625 173.011719 C 9.605469 171.144531 9.632812 171.144531 11.628906 170.949219 C 16.308594 170.496094 20.992188 170.03125 25.675781 169.589844 C 28.4375 169.328125 31.191406 169.328125 33.882812 170.113281 C 38.257812 171.386719 41.1875 174.195312 42.636719 178.507812 C 44.035156 182.675781 44.027344 186.976562 43.609375 191.277344 C 43 197.570312 40.980469 203.296875 36.511719 207.96875 C 35.175781 209.402344 33.648438 210.597656 31.9375 211.554688 C 31.207031 211.953125 30.796875 212.417969 31.121094 213.296875 C 33.582031 219.984375 36.179688 226.613281 39.015625 233.226562 C 39.894531 232.476562 39.972656 231.527344 40.253906 230.707031 C 47.625 209.460938 56.230469 188.726562 66.078125 168.503906 C 67.027344 166.542969 68.167969 165.777344 70.273438 165.691406 C 75.21875 165.492188 80.152344 165.066406 85.09375 164.753906 C 87.277344 164.617188 87.332031 164.667969 87.46875 166.730469 C 88.253906 178.871094 89.558594 190.964844 91.070312 203.035156 C 92.59375 215.183594 94.402344 227.289062 96.496094 239.359375 C 96.5 239.859375 96.703125 240.253906 97.113281 240.542969 C 97.785156 238.453125 97.90625 236.320312 98.230469 234.242188 C 101.796875 211.316406 106.269531 188.570312 111.648438 166.003906 C 111.742188 165.695312 111.820312 165.378906 111.875 165.058594 C 112.019531 163.644531 112.828125 163.230469 114.1875 163.191406 C 119.132812 163.0625 124.078125 162.828125 129.023438 162.636719 C 130.808594 162.570312 132.597656 162.601562 134.371094 162.433594 C 135.828125 162.292969 136.550781 162.8125 137.082031 164.179688 C 139.460938 170.304688 141.898438 176.402344 144.402344 182.480469 C 148.683594 192.820312 153.035156 203.132812 157.371094 213.453125 C 157.582031 213.953125 157.648438 214.566406 158.417969 214.972656 C 158.886719 214.25 158.960938 213.40625 159.136719 212.59375 C 162.699219 196.277344 166.34375 179.980469 170.277344 163.75 C 170.859375 161.34375 170.878906 161.3125 173.277344 161.289062 C 179.203125 161.234375 185.125 161.203125 191.046875 161.191406 C 193.34375 161.183594 193.355469 161.226562 192.804688 163.511719 C 186.082031 191.324219 179.863281 219.253906 173.722656 247.203125 C 173.285156 249.179688 172.859375 251.160156 172.417969 253.136719 C 171.953125 255.199219 171.945312 255.238281 169.90625 255.175781 C 165.609375 255.042969 161.292969 254.5625 157.019531 254.796875 C 153.277344 255.007812 151.601562 253.578125 150.074219 250.203125 C 141.777344 231.867188 134.183594 213.246094 126.765625 194.546875 C 126.453125 193.757812 126.3125 192.859375 125.484375 192.0625 C 124.617188 193.75 124.511719 195.460938 124.183594 197.066406 C 120.535156 214.78125 117.046875 232.519531 114.351562 250.40625 C 114.050781 252.398438 114.035156 252.425781 112.113281 252.304688 C 101.992188 251.679688 91.914062 250.597656 81.816406 249.71875 C 80.175781 249.574219 80.09375 248.480469 79.914062 247.398438 C 79.300781 243.71875 78.789062 240.019531 78.164062 236.34375 C 77.421875 231.980469 78.273438 232.769531 73.996094 232.371094 C 68.261719 231.835938 62.511719 231.460938 56.78125 230.898438 C 55.363281 230.761719 54.742188 231.175781 54.3125 232.496094 C 53.050781 236.347656 51.675781 240.164062 50.332031 243.988281 C 49.738281 245.683594 49.722656 245.726562 47.972656 245.472656 C 42.597656 244.691406 37.238281 243.8125 31.855469 243.109375 C 30.425781 242.925781 29.75 242.332031 29.253906 241.046875 C 26.355469 233.5625 23.46875 226.074219 20.871094 218.476562 C 20.660156 217.863281 20.46875 217.246094 20.226562 216.640625 C 20.082031 216.273438 19.933594 215.808594 19.480469 215.761719 C 17.867188 215.597656 16.253906 215.421875 14.636719 215.378906 C 13.746094 215.355469 13.753906 216.199219 13.691406 216.820312 C 13.484375 218.839844 13.289062 220.859375 13.148438 222.878906 C 12.78125 228.0625 12.457031 233.242188 12.109375 238.421875 C 12.160156 238.992188 12.007812 239.5 11.65625 239.945312 Z M 22.089844 183.464844 L 22.089844 183.53125 C 21.441406 183.53125 20.792969 183.511719 20.148438 183.535156 C 17.949219 183.617188 17.914062 183.617188 17.589844 185.796875 C 17.023438 189.632812 16.5 193.476562 15.964844 197.316406 C 15.785156 198.597656 15.636719 199.878906 15.460938 201.160156 C 15.335938 202.09375 15.738281 202.496094 16.675781 202.488281 C 18.289062 202.46875 19.914062 202.5625 21.523438 202.472656 C 25 202.28125 27.425781 200.5 28.839844 197.34375 C 29.878906 194.917969 30.285156 192.386719 30.0625 189.757812 C 29.773438 185.101562 27.738281 183.269531 23.058594 183.40625 C 22.734375 183.417969 22.410156 183.445312 22.089844 183.464844 Z M 72.738281 188.621094 L 72.242188 188.523438 C 71.941406 189.171875 71.636719 189.820312 71.339844 190.472656 C 68.175781 197.480469 65.171875 204.5625 62.28125 211.691406 C 61.792969 212.890625 61.3125 214.09375 60.839844 215.300781 C 60.554688 216.03125 60.621094 216.566406 61.589844 216.609375 C 65.800781 216.785156 70.007812 216.960938 74.214844 217.160156 C 75.191406 217.203125 75.527344 216.757812 75.4375 215.851562 C 75.386719 215.367188 75.371094 214.882812 75.320312 214.398438 C 74.859375 210.054688 74.375 205.707031 73.9375 201.359375 C 73.511719 197.117188 73.136719 192.867188 72.738281 188.621094 Z M 72.738281 188.621094 " fill-opacity="1" fill-rule="nonzero"/><path fill="#5d2bff" d="M 272.257812 225.082031 C 271.367188 226.519531 270.515625 227.984375 269.582031 229.394531 C 261.046875 242.320312 249.34375 250.675781 234.101562 253.863281 C 228.835938 254.910156 223.519531 255.472656 218.148438 255.554688 C 205.980469 255.867188 193.8125 255.753906 181.640625 255.554688 C 181.398438 255.550781 181.15625 255.558594 180.910156 255.539062 C 179.527344 255.425781 179.40625 255.300781 179.671875 253.859375 C 179.917969 252.503906 180.261719 251.167969 180.5625 249.820312 C 186.449219 223.476562 192.460938 197.164062 198.597656 170.875 C 199.207031 168.273438 199.90625 165.691406 200.46875 163.078125 C 200.753906 161.777344 201.292969 161.175781 202.746094 161.203125 C 215.882812 161.46875 229.039062 160.980469 242.15625 162.097656 C 248.582031 162.644531 254.84375 163.957031 260.65625 166.878906 C 270.117188 171.628906 275.875 179.253906 278.078125 189.582031 C 278.214844 190.210938 278.160156 190.886719 278.652344 191.503906 C 279.652344 190.925781 279.839844 189.816406 280.300781 188.925781 C 283.644531 182.425781 287.902344 176.652344 293.683594 172.113281 C 303.832031 164.136719 315.285156 161.113281 327.960938 163.757812 C 339.167969 166.097656 346.097656 173.277344 349.484375 184.035156 C 351.34375 189.9375 351.476562 196.023438 351.003906 202.109375 C 350.148438 213.125 347.191406 223.496094 340.945312 232.734375 C 334.128906 242.808594 325.046875 249.738281 312.96875 252.296875 C 307.535156 253.449219 302.039062 253.875 296.523438 252.980469 C 284.394531 251.015625 275.988281 242.734375 273.640625 230.523438 C 273.296875 228.71875 273.035156 226.902344 272.734375 225.089844 Z M 215.5625 238.589844 C 218.890625 238.636719 222.203125 238.449219 225.507812 238.035156 C 235.386719 236.585938 243.070312 231.6875 248.492188 223.332031 C 253.035156 216.324219 254.957031 208.53125 254.894531 200.246094 C 254.804688 188.421875 248.402344 181.195312 236.652344 179.484375 C 232.460938 178.875 228.242188 179.089844 224.03125 179.015625 C 221.578125 178.972656 221.582031 179.011719 221.019531 181.410156 C 217.316406 197.261719 213.613281 213.113281 209.90625 228.960938 C 209.277344 231.640625 208.585938 234.304688 207.988281 236.992188 C 207.675781 238.394531 207.816406 238.550781 209.238281 238.578125 C 211.347656 238.621094 213.453125 238.589844 215.5625 238.589844 Z M 334.195312 199.824219 C 334.105469 195.855469 333.957031 191.90625 332.542969 188.101562 C 330.265625 181.96875 325.832031 178.910156 319.347656 179.039062 C 315.433594 179.117188 312.085938 180.609375 309.117188 183.023438 C 305.199219 186.214844 302.46875 190.308594 300.382812 194.863281 C 297.050781 202.144531 295.773438 209.878906 295.585938 217.804688 C 295.5 221.613281 295.800781 225.417969 297.214844 229.050781 C 299.171875 234.085938 303.1875 236.996094 308.566406 237.097656 C 312.773438 237.179688 316.535156 235.824219 319.917969 233.375 C 324.8125 229.835938 327.921875 224.945312 330.269531 219.507812 C 332.976562 213.234375 334.101562 206.632812 334.195312 199.824219 Z M 334.195312 199.824219 " fill-opacity="1" fill-rule="nonzero"/><g clip-path="url(#e4ce4479ea)"><path fill="#5d2bff" d="M 141.28125 30.117188 C 140.289062 30.917969 140.046875 31.796875 139.65625 32.5625 C 133.808594 44.058594 128.296875 55.710938 123.28125 67.59375 C 122.71875 68.921875 122.074219 69.628906 120.5625 69.855469 C 111.1875 71.277344 101.859375 72.964844 92.578125 74.921875 C 92.039062 75.113281 91.511719 75.078125 91.003906 74.820312 C 90.933594 71.195312 91.945312 67.5625 91.988281 63.746094 C 91.191406 63.523438 90.492188 63.757812 89.820312 63.917969 C 83.910156 65.332031 78.007812 66.789062 72.09375 68.191406 C 71.496094 68.308594 70.945312 68.535156 70.441406 68.878906 C 69.9375 69.21875 69.523438 69.644531 69.191406 70.15625 C 66.761719 73.796875 64.226562 77.371094 61.785156 81.007812 C 61.160156 82.003906 60.269531 82.628906 59.121094 82.882812 C 53.550781 84.3125 48.015625 85.875 42.460938 87.375 C 40.386719 87.9375 40.378906 87.925781 39.910156 85.820312 C 38.847656 81.074219 37.804688 76.320312 36.722656 71.578125 C 36.242188 69.484375 36.226562 69.742188 34.207031 69.949219 C 30.390625 70.339844 28.542969 72.402344 27.414062 75.960938 C 25.757812 81.210938 23.550781 86.28125 21.679688 91.460938 C 21.210938 92.757812 20.542969 93.421875 19.175781 93.714844 C 16.183594 94.363281 13.230469 95.195312 10.285156 95.949219 C 9.757812 95.242188 10.179688 94.730469 10.34375 94.253906 C 16.511719 76.222656 23.597656 58.546875 31.117188 41.039062 C 31.570312 39.980469 32.152344 39.304688 33.308594 39.050781 C 40.667969 37.425781 47.898438 35.269531 55.308594 33.855469 C 57.714844 33.394531 60.136719 33.296875 62.574219 33.558594 C 67.035156 34.042969 68.867188 36.433594 68.117188 40.878906 C 67.503906 44.121094 66.214844 47.074219 64.257812 49.730469 C 60.898438 54.515625 56.511719 58.214844 51.679688 61.421875 C 51.140625 61.777344 50.585938 62.121094 50.03125 62.449219 C 49.410156 62.8125 49.082031 63.242188 49.316406 64.03125 C 50.492188 68.066406 51.628906 72.109375 52.832031 76.316406 C 53.734375 75.996094 54.003906 75.285156 54.382812 74.738281 C 65.960938 58.0625 78.425781 42.082031 91.789062 26.800781 C 92.390625 26.042969 93.105469 25.414062 93.9375 24.917969 C 94.769531 24.421875 95.660156 24.089844 96.613281 23.917969 C 101.472656 23.035156 106.296875 21.976562 111.179688 20.980469 C 111.828125 21.867188 111.515625 22.773438 111.453125 23.601562 C 110.902344 30.960938 110.289062 38.316406 109.738281 45.679688 C 109.273438 51.902344 108.871094 58.128906 108.421875 64.59375 C 109.339844 64.246094 109.441406 63.601562 109.679688 63.082031 C 116.472656 48.257812 123.957031 33.78125 131.664062 19.414062 C 132.511719 17.832031 133.4375 17.019531 135.300781 16.820312 C 140.453125 16.269531 145.59375 15.527344 150.71875 14.742188 C 152.109375 14.53125 152.570312 15.242188 153.105469 16.222656 C 157.023438 23.417969 160.957031 30.601562 164.910156 37.777344 C 165.292969 38.472656 165.5 39.292969 166.25 39.753906 C 166.988281 39.25 167.121094 38.398438 167.449219 37.679688 C 170.984375 29.933594 174.539062 22.195312 177.988281 14.410156 C 178.675781 12.859375 179.542969 12.210938 181.253906 12.195312 C 185.949219 12.15625 190.648438 11.941406 195.316406 11.796875 C 195.804688 12.664062 195.246094 13.28125 194.984375 13.902344 C 188.230469 29.980469 181.726562 46.152344 175.902344 62.589844 C 175.453125 63.859375 174.855469 64.335938 173.492188 64.398438 C 168.875 64.605469 164.265625 64.984375 159.652344 65.277344 C 157.3125 65.421875 157.308594 65.402344 156.382812 63.359375 C 151.867188 53.386719 147.355469 43.410156 142.84375 33.433594 C 142.375 32.410156 141.878906 31.390625 141.28125 30.117188 Z M 34.226562 60.75 C 37.042969 60.207031 39.789062 59.425781 42.472656 58.414062 C 44.078125 57.824219 45.566406 57.019531 46.941406 56 C 48.316406 54.980469 49.515625 53.785156 50.546875 52.421875 C 51.746094 50.84375 52.5 49.078125 52.8125 47.121094 C 53.109375 45.191406 52.316406 44.195312 50.371094 44.019531 C 49.722656 43.964844 49.082031 44.003906 48.445312 44.144531 C 46.15625 44.648438 43.894531 45.269531 41.597656 45.722656 C 41.074219 45.808594 40.609375 46.023438 40.207031 46.371094 C 39.808594 46.71875 39.523438 47.144531 39.363281 47.648438 C 37.734375 51.523438 36.035156 55.371094 34.371094 59.230469 C 34.191406 59.648438 33.847656 60.058594 34.226562 60.75 Z M 95.835938 36.578125 L 95.308594 36.4375 C 89.804688 43.027344 84.359375 49.664062 79.179688 56.652344 C 79.59375 56.804688 79.675781 56.867188 79.742188 56.851562 C 82.582031 56.1875 85.429688 55.558594 88.257812 54.832031 C 89.902344 54.410156 91.9375 54.570312 93.097656 53.453125 C 94.363281 52.230469 93.914062 50.085938 94.191406 48.347656 C 94.816406 44.4375 95.296875 40.503906 95.835938 36.578125 Z M 95.835938 36.578125 " fill-opacity="1" fill-rule="nonzero"/></g><path fill="#5d2bff" d="M 54.640625 352.429688 C 58.484375 357.878906 62.246094 362.917969 66.136719 367.972656 C 66.992188 367.179688 67.234375 366.316406 67.609375 365.542969 C 72.492188 355.382812 77.113281 345.101562 81.691406 334.800781 C 81.890625 334.355469 82.082031 333.90625 82.28125 333.464844 C 83.265625 331.285156 83.265625 331.292969 85.5 331.808594 C 88.105469 332.410156 90.710938 333 93.324219 333.585938 C 95.617188 334.09375 97.910156 334.628906 100.21875 335.054688 C 101.484375 335.285156 102.152344 335.925781 102.605469 337.125 C 107.875 351 113.839844 364.585938 119.714844 378.210938 C 120.019531 378.917969 120.179688 379.738281 121.140625 380.496094 C 121.496094 376.429688 121.835938 372.671875 122.15625 368.910156 C 122.929688 359.859375 123.679688 350.804688 124.46875 341.757812 C 124.65625 339.628906 124.71875 339.589844 126.820312 339.921875 C 132.585938 340.832031 138.359375 341.703125 144.167969 342.296875 C 145.589844 342.441406 146.285156 343.230469 146.992188 344.277344 C 153.199219 353.5 159.757812 362.472656 166.539062 371.28125 C 167.078125 371.980469 167.644531 372.65625 168.28125 373.441406 C 169.140625 372.609375 169.136719 371.589844 169.359375 370.703125 C 171.3125 362.914062 173.226562 355.117188 175.160156 347.324219 C 175.691406 345.191406 175.714844 345.132812 177.902344 345.304688 C 182.597656 345.667969 187.304688 345.675781 192.003906 345.867188 C 192.792969 345.898438 193.632812 345.730469 194.40625 346.242188 C 194.679688 346.894531 194.289062 347.488281 194.109375 348.066406 C 189.714844 362.15625 185.304688 376.242188 180.878906 390.320312 C 180.257812 392.296875 180.195312 392.3125 178.136719 392.167969 C 174.65625 391.925781 171.183594 391.625 167.699219 391.46875 C 166.96875 391.46875 166.28125 391.304688 165.628906 390.972656 C 164.980469 390.640625 164.441406 390.175781 164.015625 389.582031 C 156.433594 379.960938 148.816406 370.367188 141.554688 360.5 C 141.089844 359.867188 140.78125 359.066406 139.84375 358.648438 C 139.402344 359.535156 139.359375 360.476562 139.234375 361.398438 C 138.117188 369.515625 137 377.628906 135.882812 385.746094 C 135.605469 387.730469 135.550781 387.800781 133.617188 387.507812 C 125.285156 386.238281 116.96875 384.875 108.679688 383.3125 C 107.4375 383.078125 106.902344 382.480469 106.507812 381.402344 C 105.722656 379.273438 104.820312 377.1875 104.023438 375.0625 C 103.886719 374.59375 103.628906 374.199219 103.253906 373.882812 C 102.882812 373.566406 102.453125 373.378906 101.964844 373.316406 C 95.777344 372.035156 89.601562 370.6875 83.4375 369.277344 C 82.300781 369.015625 81.8125 369.375 81.378906 370.316406 C 80.53125 372.15625 79.582031 373.953125 78.734375 375.792969 C 78.328125 376.671875 77.777344 376.988281 76.820312 376.769531 C 70.503906 375.3125 64.1875 373.871094 57.863281 372.449219 C 56.867188 372.222656 56.394531 371.515625 55.886719 370.785156 C 51.957031 365.121094 47.996094 359.476562 44.125 353.773438 C 43.246094 352.476562 42.28125 351.632812 40.699219 351.386719 C 39.1875 351.152344 37.753906 350.511719 35.996094 350.394531 L 35.996094 366.679688 C 35.671875 366.898438 35.535156 367.0625 35.425781 367.050781 C 31.730469 366.542969 28.152344 365.480469 24.511719 364.71875 C 24.371094 364.710938 24.234375 364.671875 24.109375 364.609375 C 23.980469 364.546875 23.871094 364.464844 23.777344 364.359375 C 23.683594 364.25 23.613281 364.128906 23.566406 363.996094 C 23.519531 363.863281 23.5 363.722656 23.511719 363.582031 C 23.507812 363.257812 23.5 362.933594 23.503906 362.609375 C 23.585938 347.597656 23.25 332.59375 22.828125 317.589844 C 22.804688 316.796875 22.675781 315.980469 23.050781 315.019531 C 26.585938 315.980469 30.097656 316.914062 33.597656 317.886719 C 37.425781 318.949219 41.289062 319.878906 45.023438 321.246094 C 49.273438 322.742188 53.140625 324.914062 56.628906 327.765625 C 61.015625 331.425781 64 335.945312 64.769531 341.710938 C 65.46875 346.988281 63.425781 350.035156 58.359375 351.605469 C 57.285156 351.941406 56.136719 351.941406 54.640625 352.429688 Z M 35.125 327.917969 C 35.265625 332.371094 35.394531 336.480469 35.527344 340.589844 C 35.550781 341.292969 36.046875 341.550781 36.621094 341.691406 C 39.367188 342.367188 42.066406 343.261719 44.886719 343.613281 C 45.863281 343.753906 46.824219 343.695312 47.777344 343.4375 C 49.71875 342.875 50.644531 341.761719 50.613281 339.742188 C 50.625 339.011719 50.550781 338.285156 50.386719 337.570312 C 50.226562 336.855469 49.980469 336.167969 49.65625 335.511719 C 49.332031 334.855469 48.933594 334.246094 48.460938 333.683594 C 47.988281 333.121094 47.457031 332.625 46.867188 332.1875 C 43.46875 329.625 39.359375 329.042969 35.125 327.917969 Z M 92.660156 346.730469 L 85.542969 361.714844 C 90.332031 362.945312 94.894531 364.054688 99.898438 364.894531 Z M 92.660156 346.730469 " fill-opacity="1" fill-rule="nonzero"/><g clip-path="url(#c564388a35)"><path fill="#5d2bff" d="M 262.132812 47.269531 C 261.050781 48.816406 259.867188 50.285156 258.582031 51.671875 C 253.4375 56.953125 247.039062 59.941406 240.019531 61.78125 C 235.203125 63.011719 230.304688 63.636719 225.332031 63.65625 C 212.597656 63.808594 199.859375 63.804688 187.121094 63.859375 C 185.59375 63.867188 184.066406 63.859375 182.558594 63.859375 C 182.160156 63.109375 182.554688 62.53125 182.753906 61.957031 C 188.367188 45.621094 194.601562 29.511719 200.988281 13.460938 C 201.535156 12.085938 202.257812 11.695312 203.664062 11.699219 C 212.914062 11.738281 222.160156 11.945312 231.378906 12.710938 C 236.332031 13.078125 241.175781 14.023438 245.902344 15.542969 C 253.546875 18.070312 260 22.082031 263.589844 29.601562 C 263.761719 29.640625 263.933594 29.621094 264.09375 29.539062 C 264.253906 29.460938 264.375 29.339844 264.453125 29.179688 C 267.8125 24.03125 272.769531 21.175781 278.617188 20.136719 C 292.765625 17.621094 305.960938 20.222656 317.519531 28.9375 C 326.726562 35.878906 330.484375 45.523438 329.546875 56.933594 C 328.847656 65.433594 322.691406 71.585938 313.820312 73.011719 C 305.621094 74.332031 297.660156 72.972656 289.796875 70.789062 C 283.105469 69.015625 277.105469 65.902344 271.800781 61.449219 C 267.644531 57.910156 264.425781 53.71875 262.738281 48.457031 C 262.558594 48.046875 262.359375 47.652344 262.132812 47.269531 Z M 215.957031 52.449219 L 215.957031 52.5 C 217.824219 52.5 219.6875 52.554688 221.550781 52.488281 C 226.039062 52.328125 230.40625 51.566406 234.523438 49.660156 C 238.457031 47.839844 241.640625 45.226562 243.664062 41.296875 C 247.425781 33.984375 244.953125 26.441406 237.574219 22.902344 C 235.507812 21.929688 233.351562 21.257812 231.101562 20.882812 C 228.054688 20.410156 224.992188 20.128906 221.910156 20.035156 C 217.675781 19.8125 217.636719 19.839844 216.296875 23.921875 C 213.472656 32.542969 210.667969 41.175781 207.890625 49.816406 C 207.058594 52.382812 207.085938 52.40625 209.878906 52.445312 C 211.90625 52.472656 213.933594 52.449219 215.957031 52.449219 Z M 280.597656 40.664062 C 280.671875 55.316406 290.835938 61.863281 301.46875 62.0625 C 308.1875 62.191406 312.691406 58.300781 313.617188 51.601562 C 314 48.921875 313.886719 46.265625 313.28125 43.628906 C 312.675781 40.992188 311.613281 38.550781 310.101562 36.308594 C 306.71875 31.132812 301.625 28.78125 295.648438 27.980469 C 287.085938 26.828125 280.824219 32.078125 280.597656 40.664062 Z M 280.597656 40.664062 " fill-opacity="1" fill-rule="nonzero"/></g><path fill="#5d2bff" d="M 185.933594 392.273438 C 187.621094 387.320312 189.265625 382.578125 190.851562 377.8125 C 194.15625 367.890625 197.4375 357.960938 200.699219 348.027344 C 201.074219 346.890625 201.378906 346.019531 202.929688 346.042969 C 214.042969 346.191406 225.144531 345.4375 236.25 345.230469 C 241.382812 345.0625 246.457031 345.507812 251.480469 346.570312 C 252.277344 346.730469 253.058594 346.933594 253.832031 347.183594 C 259.515625 349.144531 264.039062 352.21875 264.738281 358.816406 C 265.578125 359.03125 265.777344 358.359375 266.109375 357.992188 C 278.066406 344.722656 293.070312 336.972656 310.46875 333.640625 C 313.886719 332.984375 317.371094 332.722656 320.867188 333.402344 C 326.957031 334.585938 330.09375 338.792969 329.339844 344.953125 C 328.71875 350.027344 326.851562 354.6875 324.320312 359.066406 C 315.648438 374.0625 302.585938 382.96875 285.777344 386.597656 C 282.125 387.398438 278.429688 387.855469 274.691406 387.964844 C 272.246094 388.039062 269.835938 387.800781 267.453125 387.25 C 261.804688 385.929688 257.507812 383.25 257.257812 376.609375 C 256.394531 376.648438 256.054688 377.257812 255.621094 377.667969 C 246.898438 385.960938 236.429688 390.480469 224.585938 391.953125 C 213.847656 393.289062 203.054688 392.996094 192.269531 392.746094 C 190.261719 392.703125 188.226562 392.84375 185.933594 392.273438 Z M 282.746094 379.242188 C 284.640625 379.289062 286.496094 379.042969 288.308594 378.492188 C 301.441406 374.398438 309.378906 365.460938 312.640625 352.214844 C 312.929688 351.097656 312.960938 349.972656 312.738281 348.839844 C 312.238281 346.324219 310.933594 345.039062 308.402344 344.578125 C 307.441406 344.410156 306.472656 344.382812 305.503906 344.492188 C 302.984375 344.738281 300.5625 345.363281 298.242188 346.367188 C 296.203125 347.234375 294.253906 348.265625 292.386719 349.453125 C 290.523438 350.640625 288.765625 351.976562 287.121094 353.457031 C 285.476562 354.9375 283.964844 356.539062 282.582031 358.269531 C 281.203125 360 279.976562 361.832031 278.898438 363.765625 C 277.34375 366.378906 276.382812 369.199219 276.011719 372.21875 C 275.578125 376.386719 277.429688 378.675781 281.578125 379.171875 C 282.058594 379.230469 282.546875 379.230469 282.746094 379.242188 Z M 207.023438 385.503906 C 211.792969 385.535156 216.476562 385.511719 221.140625 384.9375 C 225.796875 384.414062 230.132812 382.945312 234.148438 380.527344 C 239.542969 377.230469 243.441406 372.757812 244.625 366.328125 C 245.324219 362.527344 243.960938 359.652344 240.585938 357.785156 C 238.550781 356.730469 236.394531 356.085938 234.113281 355.851562 C 229.578125 355.253906 225.054688 355.902344 220.527344 355.851562 C 218.964844 355.835938 218.296875 356.449219 217.746094 357.847656 C 214.425781 366.28125 211.007812 374.679688 207.636719 383.09375 C 207.371094 383.757812 206.957031 384.382812 207.023438 385.503906 Z M 207.023438 385.503906 " fill-opacity="1" fill-rule="nonzero"/><path fill="#5d2bff" d="M 40.582031 145.824219 C 41.539062 145.199219 41.726562 144.277344 42.109375 143.507812 C 52.164062 123.097656 63.671875 103.546875 76.632812 84.847656 C 77.058594 84.164062 77.609375 83.597656 78.277344 83.148438 C 78.949219 82.699219 79.679688 82.40625 80.476562 82.269531 C 85.644531 81.261719 90.792969 80.125 95.953125 79.054688 C 96.820312 78.878906 97.703125 78.769531 98.90625 78.574219 C 98.699219 84.960938 98.433594 91.167969 98.3125 97.378906 C 98.1875 103.542969 98.132812 109.710938 98.183594 115.875 C 98.234375 122.078125 98.125 128.296875 98.683594 134.800781 C 99.503906 133.863281 99.585938 133.050781 99.8125 132.292969 C 105.339844 113.621094 111.824219 95.285156 119.019531 77.1875 C 119.667969 75.5625 120.507812 74.742188 122.277344 74.539062 C 128.640625 73.808594 134.992188 72.953125 141.347656 72.148438 C 141.75 72.132812 142.15625 72.097656 142.554688 72.039062 C 143.949219 71.707031 144.554688 72.378906 145.066406 73.617188 C 147.976562 80.664062 150.96875 87.675781 153.933594 94.699219 C 155.734375 98.960938 157.539062 103.214844 159.359375 107.464844 C 159.53125 107.871094 159.535156 108.464844 160.3125 108.589844 C 160.855469 107.933594 160.949219 107.035156 161.199219 106.21875 C 164.714844 94.828125 168.308594 83.457031 172.261719 72.207031 C 173.214844 69.492188 172.625 69.691406 175.734375 69.527344 C 181.730469 69.207031 187.734375 69.09375 193.738281 69.054688 C 194.621094 69.046875 195.515625 68.933594 196.386719 69.222656 C 196.5 70.117188 196.117188 70.851562 195.882812 71.613281 C 187.917969 97.675781 180.664062 123.941406 173.917969 150.347656 C 173.136719 153.414062 173.066406 152.796875 170.710938 152.878906 C 164.792969 153.078125 158.875 153.242188 152.953125 153.441406 C 150.375 153.527344 150.570312 153.675781 149.628906 151.265625 C 143.554688 135.699219 137.667969 120.0625 131.96875 104.351562 C 131.671875 103.53125 131.363281 102.710938 130.949219 101.601562 C 130.078125 102.480469 129.949219 103.347656 129.691406 104.125 C 124.425781 119.980469 119.546875 135.953125 115.414062 152.144531 C 115.3125 152.539062 115.222656 152.933594 115.113281 153.324219 C 114.597656 155.136719 114.59375 155.132812 112.632812 155.265625 C 101.785156 155.992188 90.941406 156.722656 80.09375 157.449219 C 78.355469 157.570312 78.308594 157.566406 78.269531 155.816406 C 78.167969 151.679688 78.117188 147.539062 78.039062 143.402344 C 78 141.167969 77.988281 141.152344 75.894531 141.421875 C 70.421875 142.121094 64.964844 142.933594 59.480469 143.492188 C 57.734375 143.671875 56.945312 144.464844 56.28125 145.902344 C 54.308594 150.171875 52.191406 154.375 50.234375 158.652344 C 49.695312 159.832031 49.019531 160.394531 47.726562 160.527344 C 41.921875 161.140625 36.121094 161.804688 30.328125 162.519531 C 29.003906 162.683594 28.46875 162.265625 28.167969 160.976562 C 26.617188 154.269531 24.984375 147.574219 23.378906 140.871094 C 23.265625 140.398438 23.175781 139.921875 23.058594 139.449219 C 22.90625 138.832031 22.609375 138.410156 21.863281 138.617188 C 21.628906 138.671875 21.386719 138.710938 21.144531 138.734375 C 17.847656 139.210938 17.800781 139.199219 17.050781 142.386719 C 15.472656 149.09375 13.945312 155.8125 12.398438 162.527344 C 11.902344 164.683594 11.910156 164.703125 9.792969 164.9375 C 6.734375 165.28125 3.671875 165.597656 0.542969 165.933594 C 0.0351562 165.023438 0.40625 164.144531 0.574219 163.328125 C 4.933594 141.941406 10.636719 120.914062 17.679688 100.25 C 18.113281 98.972656 18.726562 98.242188 20.082031 97.898438 C 25.972656 96.394531 31.828125 94.757812 37.710938 93.238281 C 40.859375 92.425781 44.046875 91.84375 47.332031 92.410156 C 51.527344 93.136719 53.765625 95.578125 54.03125 99.8125 C 54.265625 103.523438 53.4375 107.074219 52.277344 110.550781 C 49.636719 118.488281 44.820312 124.902344 38.25 129.988281 C 36.933594 131.003906 36.59375 131.882812 37.0625 133.441406 C 38.113281 136.929688 38.988281 140.476562 39.949219 143.996094 C 40.113281 144.585938 40.347656 145.15625 40.582031 145.824219 Z M 130.851562 92.050781 C 131.617188 92.601562 131.691406 93.351562 131.933594 94 C 136.433594 106 140.898438 118.011719 145.421875 130.003906 C 147.683594 136 150.078125 141.945312 152.351562 147.933594 C 152.816406 149.167969 153.417969 149.742188 154.824219 149.667969 C 159.441406 149.4375 164.066406 149.316406 168.691406 149.183594 C 169.667969 149.152344 170.445312 148.980469 170.660156 147.84375 C 170.796875 147.128906 171.03125 146.429688 171.210938 145.722656 C 174.34375 133.546875 177.632812 121.414062 181.074219 109.320312 C 184.433594 97.460938 187.941406 85.644531 191.597656 73.867188 C 192.21875 71.878906 192.15625 71.828125 190.070312 71.867188 C 186.175781 71.945312 182.28125 72.03125 178.390625 72.128906 C 175.261719 72.210938 175.785156 72.078125 174.875 74.757812 C 170.128906 88.738281 165.8125 102.855469 161.640625 117.015625 C 161.402344 117.820312 161.113281 118.605469 160.808594 119.507812 C 160.265625 119.113281 159.910156 118.585938 159.738281 117.933594 C 157.449219 112.472656 155.164062 107.011719 152.886719 101.542969 C 149.433594 93.230469 145.972656 84.917969 142.578125 76.578125 C 142.074219 75.335938 141.484375 74.664062 140.085938 74.988281 C 139.605469 75.0625 139.121094 75.113281 138.632812 75.136719 C 133.96875 75.726562 129.3125 76.410156 124.636719 76.871094 C 122.699219 77.0625 121.691406 77.78125 120.964844 79.65625 C 112.960938 100.3125 105.8125 121.25 99.894531 142.605469 C 99.109375 145.4375 99.265625 148.210938 99.34375 151.035156 C 99.375 152.035156 99.789062 152.507812 100.84375 152.4375 C 104.242188 152.199219 107.644531 151.984375 111.046875 151.789062 C 111.230469 151.796875 111.40625 151.769531 111.582031 151.707031 C 111.753906 151.648438 111.910156 151.554688 112.046875 151.433594 C 112.1875 151.3125 112.296875 151.167969 112.378906 151.003906 C 112.460938 150.839844 112.507812 150.664062 112.523438 150.480469 C 112.609375 150.003906 112.789062 149.542969 112.910156 149.074219 C 117.722656 130.617188 123.476562 112.453125 129.773438 94.453125 C 130.054688 93.652344 130.207031 92.761719 130.851562 92.050781 Z M 95.195312 114.296875 C 95.195312 113.8125 95.195312 113.324219 95.195312 112.835938 C 95.226562 103.425781 95.464844 94.019531 95.90625 84.621094 C 96.046875 81.625 96.019531 81.609375 93.199219 82.179688 C 89.304688 82.964844 85.441406 83.894531 81.523438 84.535156 C 79.566406 84.855469 78.398438 85.8125 77.320312 87.386719 C 69.945312 98.171875 63.019531 109.234375 56.542969 120.578125 C 51.578125 129.324219 46.898438 138.222656 42.511719 147.273438 C 42.0625 148.195312 41.382812 149.070312 41.746094 150.242188 C 42.421875 152.40625 43.050781 154.589844 43.699219 156.765625 C 43.816406 157.160156 43.945312 157.59375 44.417969 157.636719 C 45.644531 157.710938 46.84375 157.570312 48.019531 157.214844 C 48.828125 157.003906 48.917969 156.132812 49.226562 155.496094 C 51.351562 151.117188 53.484375 146.746094 55.566406 142.347656 C 55.757812 141.851562 56.066406 141.449219 56.5 141.140625 C 56.929688 140.828125 57.410156 140.664062 57.941406 140.640625 C 60.839844 140.3125 63.714844 139.796875 66.605469 139.40625 C 70.542969 138.871094 74.484375 138.363281 78.425781 137.882812 C 80.792969 137.59375 80.796875 137.621094 80.804688 140.121094 C 80.8125 141.5 80.796875 142.878906 80.8125 144.257812 C 80.839844 146.9375 80.875 149.613281 80.921875 152.289062 C 80.933594 153.132812 80.984375 153.972656 82.203125 153.871094 C 85.839844 153.570312 89.476562 153.28125 93.117188 152.988281 C 93.722656 152.9375 94.234375 152.722656 94.375 152.050781 C 94.9375 149.371094 96.070312 146.828125 95.914062 143.972656 C 95.375 134.089844 95.199219 124.195312 95.195312 114.296875 Z M 43.125 94.84375 C 41.839844 94.855469 40.570312 95 39.3125 95.277344 C 33.515625 96.789062 27.730469 98.351562 21.910156 99.765625 C 20.09375 100.207031 19.085938 100.992188 18.460938 102.875 C 13.476562 117.871094 9.132812 133.046875 5.433594 148.40625 C 4.398438 152.738281 3.5 157.101562 2.570312 161.460938 C 2.265625 162.882812 2.414062 163.027344 3.859375 162.871094 C 5.550781 162.683594 7.234375 162.34375 8.925781 162.269531 C 10.414062 162.203125 10.976562 161.597656 11.269531 160.136719 C 12.472656 154.097656 13.882812 148.105469 15.457031 142.152344 C 15.910156 140.441406 15.785156 138.269531 17.042969 137.164062 C 18.371094 135.996094 20.558594 136.179688 22.375 135.816406 C 24.292969 135.429688 24.300781 135.472656 24.75 137.386719 C 26.261719 143.855469 27.730469 150.335938 29.316406 156.785156 C 30.109375 160.015625 29.601562 159.445312 32.800781 159.230469 C 34.265625 159.132812 35.132812 158.574219 35.679688 157.15625 C 36.464844 155.121094 37.445312 153.152344 38.421875 151.199219 C 38.957031 150.140625 39.039062 149.054688 38.660156 147.929688 C 37.28125 143.015625 35.925781 138.09375 34.6875 133.144531 C 33.859375 129.835938 33.503906 130.769531 36.335938 128.710938 C 44.765625 122.574219 50.347656 114.625 51.707031 104.082031 C 52.527344 97.722656 49.828125 94.765625 43.125 94.84375 Z M 37.59375 158.171875 C 38.671875 158.53125 39.617188 158.214844 40.566406 158.125 C 40.691406 158.128906 40.808594 158.105469 40.921875 158.046875 C 41.03125 157.992188 41.125 157.914062 41.195312 157.808594 C 41.265625 157.707031 41.308594 157.59375 41.324219 157.46875 C 41.335938 157.34375 41.316406 157.226562 41.269531 157.109375 C 40.878906 155.863281 40.703125 154.519531 39.863281 153.152344 C 38.855469 154.710938 38.097656 156.382812 37.59375 158.171875 Z M 37.59375 158.171875 " fill-opacity="1" fill-rule="nonzero"/><path fill="#5d2bff" d="M 274.285156 92.492188 C 274.703125 91.921875 274.957031 91.609375 275.167969 91.273438 C 280.277344 83.113281 287.75 78.328125 297.148438 77.160156 C 311.625 75.359375 324.480469 79.203125 334.945312 89.742188 C 339.25 94.078125 342.160156 99.292969 344.03125 105.097656 C 344.257812 105.789062 344.484375 106.484375 344.722656 107.171875 C 344.738281 107.222656 344.847656 107.242188 345.078125 107.363281 L 345.078125 86.84375 C 345.847656 86.324219 346.476562 86.648438 347.058594 86.800781 C 351.523438 87.976562 355.964844 89.261719 360.453125 90.34375 C 361.933594 90.699219 362.597656 91.492188 363.085938 92.808594 C 366.363281 101.625 369.453125 110.503906 372.296875 119.46875 C 372.515625 120.15625 372.753906 120.839844 373.019531 121.636719 C 373.925781 121 373.976562 120.058594 374.253906 119.277344 C 376.707031 112.324219 379.121094 105.355469 381.5625 98.390625 C 382.277344 96.347656 382.300781 96.351562 384.449219 96.898438 C 388.214844 97.863281 391.972656 98.875 395.757812 99.78125 C 396.921875 100.058594 397.308594 100.59375 397.316406 101.78125 C 397.390625 115.894531 397.492188 130.011719 397 144.121094 C 396.796875 149.875 396.480469 155.625 396.210938 161.375 C 396.179688 162.023438 396.121094 162.671875 396.085938 163.316406 C 396.039062 164.246094 395.578125 164.566406 394.652344 164.445312 C 391.441406 164.011719 388.222656 163.570312 385 163.246094 C 383.730469 163.117188 383.40625 162.613281 383.46875 161.386719 C 383.804688 154.90625 384.105469 148.425781 384.324219 141.941406 C 384.480469 137.320312 384.492188 132.695312 384.558594 128.070312 C 384.566406 127.691406 384.515625 127.3125 384.480469 126.808594 C 383.734375 127.285156 383.714844 127.964844 383.527344 128.546875 C 381.894531 133.558594 380.273438 138.570312 378.628906 143.578125 C 377.90625 145.78125 377.886719 145.765625 375.53125 145.355469 C 373.855469 145.0625 372.183594 144.691406 370.492188 144.535156 C 368.710938 144.375 367.890625 143.597656 367.464844 141.785156 C 365.796875 134.6875 363.835938 127.65625 361.707031 120.679688 C 361.546875 120.074219 361.25 119.542969 360.816406 119.089844 C 360.769531 119.902344 360.691406 120.710938 360.679688 121.519531 C 360.496094 133.691406 360 145.84375 358.882812 157.96875 C 358.675781 160.222656 358.664062 160.207031 356.421875 159.976562 C 352.308594 159.554688 348.191406 159.152344 344.074219 158.738281 C 342.117188 158.542969 342.074219 158.535156 342.25 156.511719 C 342.777344 150.453125 343.335938 144.398438 343.882812 138.339844 C 343.917969 137.945312 343.945312 137.546875 343.976562 137.101562 C 343.070312 137.125 343.164062 137.863281 342.96875 138.292969 C 337.316406 150.613281 327.660156 157.046875 314.191406 157.730469 C 305.800781 158.15625 297.671875 156.957031 290.109375 153.054688 C 280.96875 148.335938 274.695312 141.109375 271.300781 131.375 C 271.035156 130.617188 270.78125 129.851562 270.527344 129.117188 C 269.589844 129.113281 269.421875 129.855469 269.074219 130.351562 C 260.167969 143.105469 247.808594 149.988281 232.511719 151.882812 C 226.621094 152.546875 220.710938 152.847656 214.785156 152.785156 C 203.019531 152.789062 191.257812 152.753906 179.492188 152.734375 C 179.089844 152.734375 178.683594 152.738281 178.277344 152.734375 C 177.390625 152.722656 177.1875 152.28125 177.40625 151.460938 C 178.03125 149.113281 178.609375 146.75 179.210938 144.394531 C 185.457031 120.039062 192.109375 95.796875 199.328125 71.714844 C 199.445312 71.324219 199.578125 70.9375 199.660156 70.542969 C 199.894531 69.425781 200.515625 68.960938 201.707031 68.992188 C 204.625 69.070312 207.546875 69.015625 210.464844 69.046875 C 219.46875 69.140625 228.476562 69.207031 237.445312 70.117188 C 243.773438 70.757812 249.953125 72.054688 255.792969 74.625 C 263.707031 78.113281 269.902344 83.46875 273.628906 91.425781 C 273.757812 91.714844 273.960938 91.96875 274.285156 92.492188 Z M 201.699219 148.90625 C 213.953125 148.929688 223.367188 149.3125 232.734375 148.042969 C 247.871094 145.988281 259.632812 138.699219 267.722656 125.625 C 268.292969 124.738281 268.695312 123.78125 268.933594 122.757812 C 269.171875 121.730469 269.230469 120.695312 269.113281 119.648438 C 268.398438 112.597656 269.207031 105.726562 271.542969 99.035156 C 271.828125 98.277344 271.964844 97.492188 271.953125 96.683594 C 271.945312 95.875 271.792969 95.097656 271.492188 94.34375 C 268.457031 85.953125 262.457031 80.464844 254.457031 76.984375 C 248.058594 74.199219 241.261719 73.074219 234.359375 72.570312 C 224.726562 71.863281 215.070312 71.875 205.421875 71.714844 C 202.945312 71.671875 202.929688 71.707031 202.265625 74.019531 C 200.449219 80.332031 198.625 86.640625 196.855469 92.960938 C 191.863281 110.761719 187.117188 128.628906 182.609375 146.554688 C 182.019531 148.890625 182.042969 148.902344 184.597656 148.90625 C 191.25 148.910156 197.898438 148.90625 201.699219 148.90625 Z M 343.648438 119.453125 C 343.648438 117.914062 343.710938 116.371094 343.628906 114.835938 C 343.542969 113.539062 343.382812 112.253906 343.152344 110.976562 C 341.019531 98.332031 334.335938 89.011719 322.710938 83.46875 C 319.515625 81.921875 316.175781 80.804688 312.695312 80.121094 C 309.210938 79.441406 305.699219 79.210938 302.15625 79.433594 C 290.796875 80.164062 282.089844 85.257812 276.75 95.574219 C 276.023438 96.890625 275.789062 98.292969 276.042969 99.773438 C 276.691406 103.554688 276.800781 107.351562 276.367188 111.160156 C 275.933594 114.972656 274.972656 118.648438 273.492188 122.1875 C 273.054688 123.179688 272.945312 124.207031 273.160156 125.269531 C 275.128906 135.246094 280.1875 143.167969 288.921875 148.507812 C 297.433594 153.710938 306.808594 155.09375 316.554688 153.957031 C 329.855469 152.40625 338.113281 144.710938 342.105469 132.183594 C 343.390625 128.035156 343.90625 123.789062 343.648438 119.453125 Z M 347.84375 89.417969 C 347.332031 90.597656 347.527344 91.5 347.542969 92.378906 C 347.796875 108.691406 347.519531 124.992188 346.203125 141.261719 C 345.863281 145.464844 345.503906 149.667969 345.132812 153.871094 C 345.042969 154.847656 345.058594 155.617188 346.363281 155.734375 C 349.351562 156 352.335938 156.332031 355.316406 156.683594 C 356.402344 156.8125 356.75 156.328125 356.808594 155.332031 C 356.917969 153.46875 357.113281 151.613281 357.246094 149.753906 C 358.246094 135.664062 358.609375 121.558594 358.433594 107.433594 C 358.425781 106.933594 358.433594 106.429688 358.433594 105.820312 C 359.300781 106.207031 359.261719 106.765625 359.402344 107.199219 C 360.660156 111.054688 361.921875 114.90625 363.121094 118.773438 C 365.257812 125.667969 367.171875 132.621094 368.933594 139.617188 C 369.25 140.875 369.726562 141.617188 371.136719 141.730469 C 372.511719 141.863281 373.863281 142.105469 375.199219 142.460938 C 376.234375 142.714844 376.726562 142.347656 376.957031 141.386719 C 377.050781 140.996094 377.214844 140.621094 377.339844 140.234375 C 379.929688 132.210938 382.527344 124.1875 385.128906 116.167969 C 385.355469 115.464844 385.335938 114.585938 386.050781 114.085938 C 386.476562 114.398438 386.371094 114.742188 386.378906 115.03125 C 386.582031 127.285156 386.308594 139.53125 385.855469 151.773438 C 385.769531 154.121094 385.683594 156.476562 385.480469 158.816406 C 385.363281 160.117188 385.898438 160.558594 387.085938 160.652344 C 388.296875 160.746094 389.496094 160.96875 390.703125 161.113281 C 394.511719 161.574219 394.527344 161.570312 394.710938 157.609375 C 395.511719 140.261719 395.847656 122.910156 395.558594 105.546875 C 395.542969 104.734375 395.515625 103.921875 395.496094 103.113281 C 395.503906 102.949219 395.480469 102.792969 395.429688 102.636719 C 395.378906 102.484375 395.300781 102.34375 395.195312 102.21875 C 395.089844 102.09375 394.964844 101.996094 394.820312 101.917969 C 394.675781 101.839844 394.523438 101.792969 394.363281 101.773438 C 391.21875 100.996094 388.078125 100.191406 384.945312 99.363281 C 384.050781 99.128906 383.566406 99.46875 383.308594 100.304688 C 383.117188 100.925781 382.878906 101.53125 382.664062 102.140625 C 379.910156 110.109375 377.152344 118.078125 374.386719 126.046875 C 374.121094 126.820312 374.085938 127.773438 373.148438 128.308594 C 371.753906 123.859375 370.421875 119.523438 369.035156 115.207031 C 366.828125 108.335938 364.445312 101.527344 361.886719 94.78125 C 361.578125 93.964844 361.449219 93.023438 360.382812 92.742188 C 356.246094 91.648438 352.109375 90.546875 347.847656 89.417969 Z M 347.84375 89.417969 " fill-opacity="1" fill-rule="nonzero"/><g clip-path="url(#495a22f268)"><path fill="#5d2bff" d="M 383.441406 242.089844 C 386.96875 226.980469 389.773438 212.203125 391.742188 197.160156 C 390.851562 197.816406 390.734375 198.75 390.417969 199.558594 C 387.203125 207.789062 383.8125 215.945312 380.257812 224.03125 C 379.613281 225.488281 378.8125 226.21875 377.21875 226.261719 C 375.601562 226.3125 373.984375 226.527344 372.375 226.730469 C 371.351562 226.859375 370.917969 226.523438 370.84375 225.453125 C 370.628906 222.382812 370.300781 219.316406 370.0625 216.246094 C 369.554688 209.699219 368.722656 203.183594 367.933594 196.667969 C 367.859375 196.042969 367.917969 195.351562 367.222656 194.785156 C 366.519531 198.992188 365.847656 203.113281 365.144531 207.234375 C 363.023438 219.621094 360.351562 231.890625 357.273438 244.074219 C 356.75 246.132812 356.726562 246.117188 354.550781 246.398438 C 351.335938 246.8125 348.125 247.257812 344.910156 247.667969 C 344.203125 247.757812 343.476562 247.9375 342.617188 247.539062 C 343.164062 245.328125 343.6875 243.132812 344.242188 240.945312 C 349.398438 220.738281 353.304688 200.292969 355.964844 179.609375 C 356.425781 175.992188 356.898438 172.375 357.28125 168.746094 C 357.398438 167.617188 357.773438 167.195312 358.949219 167.3125 C 363.0625 167.730469 367.179688 168.121094 371.304688 168.410156 C 372.558594 168.5 372.925781 169.085938 373.117188 170.191406 C 373.816406 174.265625 374.628906 178.316406 375.316406 182.390625 C 376.511719 189.421875 377.589844 196.472656 378.371094 203.566406 C 378.484375 204.191406 378.636719 204.804688 378.824219 205.414062 C 379.804688 204.25 380.140625 202.996094 380.625 201.839844 C 384.640625 192.269531 388.386719 182.597656 391.867188 172.824219 C 392.675781 170.5625 392.683594 170.574219 395.109375 170.796875 C 397.773438 171.039062 400.441406 171.242188 403.101562 171.507812 C 404.878906 171.6875 404.886719 171.722656 404.75 173.390625 C 403.300781 191.015625 400.878906 208.507812 397.484375 225.863281 C 396.640625 230.15625 395.671875 234.421875 394.816406 238.714844 C 394.578125 239.917969 394.050781 240.472656 392.769531 240.628906 C 389.808594 240.988281 386.871094 241.539062 383.441406 242.089844 Z M 383.441406 242.089844 " fill-opacity="1" fill-rule="nonzero"/></g><path fill="#5d2bff" d="M 130.464844 292.503906 C 129.457031 300.183594 128.4375 307.652344 127.507812 315.132812 C 126.796875 320.847656 126.203125 326.574219 125.550781 332.296875 C 125.34375 334.105469 125.269531 334.210938 123.421875 333.921875 C 113.324219 332.363281 103.28125 330.523438 93.304688 328.324219 C 92.816406 328.265625 92.390625 328.074219 92.023438 327.746094 C 91.660156 327.421875 91.417969 327.019531 91.304688 326.542969 C 90.277344 323.300781 89.117188 320.097656 88.09375 316.847656 C 87.980469 316.332031 87.730469 315.894531 87.339844 315.535156 C 86.949219 315.175781 86.492188 314.960938 85.96875 314.890625 C 80.269531 313.636719 74.585938 312.308594 68.921875 310.898438 C 67.6875 310.59375 67.152344 310.84375 66.785156 312.019531 C 65.988281 314.574219 65.058594 317.085938 64.269531 319.640625 C 63.929688 320.734375 63.390625 321.027344 62.300781 320.71875 C 55.90625 318.917969 49.503906 317.140625 43.09375 315.386719 C 42.023438 315.09375 41.570312 314.277344 41.074219 313.433594 C 37.066406 306.664062 33.085938 299.871094 29.636719 292.804688 C 28.386719 290.242188 26.226562 290.144531 24.082031 289.667969 C 23.226562 289.472656 23.285156 290.253906 23.289062 290.800781 C 23.316406 293.558594 23.386719 296.316406 23.40625 299.074219 C 23.425781 302.550781 23.410156 306.027344 23.410156 309.722656 C 23.105469 310.027344 22.53125 309.699219 22.03125 309.574219 C 18.726562 308.746094 15.449219 307.824219 12.136719 307.046875 C 10.789062 306.730469 10.296875 306.101562 10.324219 304.714844 C 10.378906 301.632812 10.265625 298.550781 10.242188 295.46875 C 10.113281 279.890625 10.136719 264.316406 10.710938 248.75 C 10.726562 248.34375 10.738281 247.9375 10.753906 247.535156 C 10.875 244.941406 10.558594 244.683594 13.429688 245.226562 C 18.367188 246.164062 23.335938 246.929688 28.289062 247.789062 C 40.761719 249.953125 48.984375 258.574219 50.566406 271.144531 C 50.902344 273.800781 51.132812 276.453125 50.734375 279.140625 C 49.96875 284.320312 47.382812 288.007812 42.371094 289.835938 C 42.074219 289.945312 41.800781 290.117188 41.292969 290.375 C 44.132812 295.597656 47.089844 300.667969 50.257812 305.75 C 51.175781 304.945312 51.21875 303.917969 51.496094 303.046875 C 56.464844 287.519531 61.691406 272.085938 67.738281 256.945312 C 68.945312 253.917969 68.238281 253.992188 71.851562 254.480469 C 77.3125 255.214844 82.796875 255.792969 88.273438 256.441406 C 90.566406 256.714844 90.574219 256.71875 91.042969 258.917969 C 94.761719 276.457031 99.296875 293.785156 104.652344 310.898438 C 105.089844 312.289062 105.566406 313.667969 106.039062 315.046875 C 106.082031 315.179688 106.238281 315.269531 106.457031 315.5 C 106.875 314.378906 106.859375 313.269531 106.9375 312.191406 C 108.160156 295.03125 110.089844 277.949219 112.4375 260.910156 C 112.722656 258.835938 112.726562 258.800781 114.878906 258.9375 C 122.40625 259.421875 129.929688 259.96875 137.460938 260.398438 C 138.777344 260.476562 139.246094 261.183594 139.734375 262.179688 C 143.285156 269.382812 146.8125 276.597656 150.453125 283.75 C 153.578125 289.894531 156.832031 295.972656 160.050781 302.066406 C 160.378906 302.683594 160.519531 303.464844 161.429688 303.859375 C 162.238281 301.375 162.546875 298.828125 163.0625 296.332031 C 165.246094 285.769531 167.410156 275.203125 169.554688 264.632812 C 169.652344 264.15625 169.808594 263.6875 169.871094 263.207031 C 170.003906 262.195312 170.585938 261.871094 171.554688 261.925781 C 172.929688 261.996094 174.3125 261.960938 175.691406 262.03125 C 181.6875 262.34375 187.691406 262.363281 193.691406 262.449219 C 195.859375 262.476562 195.890625 262.507812 195.371094 264.671875 C 191.5 280.839844 187.617188 297.003906 183.722656 313.164062 C 181.785156 321.203125 179.792969 329.230469 177.816406 337.265625 C 177.257812 339.542969 177.242188 339.582031 174.941406 339.433594 C 169.761719 339.097656 164.589844 338.65625 159.40625 338.386719 C 157.824219 338.304688 156.953125 337.628906 156.148438 336.339844 C 148.152344 323.539062 140.675781 310.441406 133.539062 297.148438 C 132.773438 295.71875 132 294.292969 131.214844 292.875 C 131.160156 292.765625 130.953125 292.738281 130.464844 292.503906 Z M 163.199219 313.566406 C 162.15625 312.859375 161.914062 312.050781 161.523438 311.355469 C 154.9375 299.703125 148.761719 287.832031 142.757812 275.871094 C 141.011719 272.390625 139.296875 268.894531 137.574219 265.40625 C 137.175781 264.605469 136.847656 263.875 135.699219 263.804688 C 129.546875 263.414062 123.402344 262.96875 117.257812 262.472656 C 116.039062 262.375 115.445312 262.6875 115.355469 263.96875 C 115.261719 265.261719 115.007812 266.542969 114.835938 267.828125 C 112.460938 285.433594 110.574219 303.089844 109.285156 320.816406 C 109.0625 323.347656 109.425781 325.792969 110.367188 328.152344 C 110.496094 328.582031 110.734375 328.9375 111.082031 329.21875 C 111.433594 329.5 111.832031 329.65625 112.277344 329.6875 C 114.84375 330.066406 117.390625 330.566406 119.953125 330.980469 C 122.484375 331.386719 122.503906 331.367188 122.757812 328.886719 C 124.230469 314.441406 126 300.035156 128.0625 285.660156 C 128.226562 284.515625 128.441406 283.378906 128.667969 282.039062 C 129.742188 282.816406 129.949219 283.722656 130.34375 284.484375 C 138.992188 301.292969 148.097656 317.847656 158 333.957031 C 158.867188 335.363281 159.800781 335.984375 161.453125 336.039062 C 164.613281 336.148438 167.761719 336.519531 170.914062 336.738281 C 175.28125 337.039062 174.347656 337.195312 175.1875 333.671875 C 179.414062 316.003906 183.59375 298.328125 187.730469 280.640625 C 188.734375 276.378906 189.742188 272.113281 190.703125 267.84375 C 191.085938 266.136719 190.96875 265.996094 189.257812 265.949219 C 184.394531 265.828125 179.527344 265.761719 174.660156 265.628906 C 173.679688 265.601562 173.117188 265.921875 172.941406 266.890625 C 172.871094 267.289062 172.78125 267.683594 172.699219 268.082031 C 169.957031 281.261719 167.21875 294.441406 164.472656 307.621094 C 164.082031 309.507812 163.664062 311.394531 163.199219 313.566406 Z M 106.085938 325.246094 C 106.308594 324.097656 105.863281 322.871094 105.460938 321.636719 C 104.042969 317.324219 102.582031 313.027344 101.230469 308.691406 C 96.4375 293.367188 92.332031 277.859375 88.910156 262.167969 C 88.375 259.707031 88.363281 259.730469 85.847656 259.421875 C 81.585938 258.902344 77.324219 258.367188 73.066406 257.792969 C 70.667969 257.46875 70.664062 257.425781 69.742188 259.71875 C 63.460938 275.375 58.019531 291.328125 52.796875 307.359375 C 52.410156 308.550781 52.421875 309.511719 53.148438 310.546875 C 54.179688 311.90625 55.085938 313.347656 55.863281 314.867188 C 56.808594 316.914062 58.519531 317.5 60.464844 317.96875 C 61.597656 318.242188 62.050781 317.914062 62.371094 316.828125 C 63.128906 314.265625 64.039062 311.746094 64.84375 309.195312 C 65.179688 308.132812 65.550781 307.621094 66.902344 307.96875 C 73.804688 309.734375 80.75 311.363281 87.738281 312.757812 C 88.265625 312.820312 88.722656 313.027344 89.117188 313.386719 C 89.507812 313.742188 89.757812 314.179688 89.871094 314.695312 C 90.804688 317.796875 91.96875 320.835938 92.835938 323.953125 C 93.296875 325.613281 94.203125 326.316406 95.820312 326.574219 C 98.21875 326.957031 100.59375 327.511719 102.976562 327.988281 C 105.984375 328.59375 105.984375 328.59375 106.085938 325.246094 Z M 21.65625 307.199219 C 21.65625 305.324219 21.679688 303.789062 21.652344 302.257812 C 21.566406 297.714844 21.441406 293.171875 21.367188 288.628906 C 21.332031 286.503906 21.382812 286.488281 23.339844 286.960938 C 24.601562 287.265625 25.839844 287.691406 27.109375 287.910156 C 28.621094 288.171875 29.449219 289.023438 30.132812 290.367188 C 33.804688 297.59375 37.824219 304.640625 41.878906 311.667969 C 43.15625 313.878906 45.4375 313.929688 47.378906 314.121094 C 48.519531 314.234375 48.398438 312.183594 48.910156 311.136719 C 49.015625 310.921875 49.027344 310.660156 49.140625 310.445312 C 49.90625 308.972656 49.488281 307.734375 48.640625 306.382812 C 45.234375 300.957031 42.070312 295.382812 38.976562 289.773438 C 38.082031 288.148438 38.101562 288.105469 39.933594 287.582031 C 44.796875 286.195312 47.917969 283.039062 48.46875 278.042969 C 49.632812 267.433594 46.0625 255.351562 31.480469 251.351562 C 25.390625 249.683594 19.078125 248.992188 12.914062 247.835938 C 12.34375 248.675781 12.515625 249.511719 12.476562 250.304688 C 11.96875 259.710938 12.039062 269.121094 12.023438 278.53125 C 12.015625 286.644531 12.113281 294.757812 12.164062 302.875 C 12.171875 303.847656 12.050781 304.8125 13.40625 305.121094 C 16.078125 305.734375 18.726562 306.453125 21.65625 307.199219 Z M 51.738281 311.589844 C 49.976562 315.035156 50.046875 315.207031 53.300781 315.914062 C 53.660156 315.953125 54.015625 315.953125 54.375 315.925781 C 53.632812 314.394531 52.753906 312.949219 51.738281 311.589844 Z M 51.738281 311.589844 " fill-opacity="1" fill-rule="nonzero"/><g clip-path="url(#5325fa39a8)"><path fill="#5d2bff" d="M 180.585938 339.742188 C 182.136719 333.558594 183.613281 327.753906 185.050781 321.933594 C 189.714844 303.039062 194.371094 284.144531 199.019531 265.242188 C 199.078125 265.007812 199.109375 264.765625 199.171875 264.53125 C 199.6875 262.503906 199.6875 262.488281 201.730469 262.472656 C 206.4375 262.433594 211.140625 262.4375 215.847656 262.371094 C 222.820312 262.273438 229.796875 262.050781 236.773438 262.023438 C 242.863281 262 248.933594 262.378906 254.878906 263.886719 C 258.757812 264.871094 262.464844 266.242188 265.769531 268.566406 C 270.371094 271.796875 273.636719 275.996094 275.296875 281.414062 C 275.453125 281.925781 275.390625 282.558594 276.050781 283.03125 C 276.832031 282.632812 277.175781 281.773438 277.671875 281.09375 C 285.429688 270.46875 295.378906 262.648438 307.636719 257.859375 C 313.832031 255.398438 320.261719 254.28125 326.925781 254.511719 C 338.703125 254.941406 345.667969 261.789062 346.304688 273.585938 C 346.378906 274.957031 346.316406 276.335938 346.316406 277.832031 C 347.003906 277.648438 347.011719 277.058594 347.171875 276.59375 C 349.644531 269.296875 351.867188 261.925781 353.835938 254.476562 C 354.328125 252.613281 355.132812 251.867188 357.054688 251.628906 C 361.785156 251.046875 366.484375 250.1875 371.503906 249.386719 C 372.070312 259.480469 371.851562 269.429688 371.816406 279.667969 C 372.980469 278.957031 373.300781 277.933594 373.792969 277.09375 C 379.328125 267.644531 384.511719 258.007812 389.347656 248.183594 C 390.105469 246.640625 390.996094 245.835938 392.742188 245.621094 C 395.953125 245.222656 399.140625 244.574219 402.335938 244.042969 C 402.925781 243.875 403.511719 243.894531 404.089844 244.109375 C 403.839844 246.890625 402.988281 249.507812 402.324219 252.152344 C 397.59375 270.953125 391.851562 289.4375 385.09375 307.609375 C 384.40625 309.457031 383.527344 310.558594 381.503906 310.976562 C 378.492188 311.597656 375.554688 312.566406 372.578125 313.359375 C 371.90625 313.535156 371.238281 313.855469 370.222656 313.671875 C 374.59375 302.542969 378.820312 291.472656 382.03125 280.023438 C 379.800781 283.769531 377.589844 287.527344 375.328125 291.253906 C 373.5625 294.167969 371.703125 297.023438 369.945312 299.9375 C 369.402344 300.902344 368.589844 301.511719 367.515625 301.769531 C 365.238281 302.359375 362.984375 303.027344 360.710938 303.621094 C 358.964844 304.078125 358.847656 303.980469 358.945312 302.242188 C 359.121094 299.085938 359.339844 295.929688 359.503906 292.769531 C 359.640625 290.097656 359.726562 287.421875 359.816406 284.746094 C 359.832031 284.304688 359.757812 283.863281 359.707031 283.195312 C 358.816406 284.042969 358.714844 284.957031 358.4375 285.753906 C 354.441406 297.074219 349.941406 308.1875 345.171875 319.203125 C 344.925781 319.886719 344.523438 320.464844 343.96875 320.933594 C 343.414062 321.40625 342.777344 321.703125 342.0625 321.835938 C 337.960938 322.8125 333.890625 323.902344 329.804688 324.945312 C 329.34375 325.0625 328.894531 325.3125 328.179688 324.953125 C 330.589844 319.382812 333.007812 313.804688 335.425781 308.214844 C 334.453125 308.410156 334.128906 309.125 333.679688 309.703125 C 324.128906 322.175781 311.863281 330.339844 296.308594 333.285156 C 291.015625 334.289062 285.695312 334.75 280.363281 333.597656 C 272.683594 331.929688 267.582031 327.5625 265.90625 319.65625 C 265.855469 319.417969 265.785156 319.1875 265.710938 318.957031 C 265.675781 318.878906 265.632812 318.808594 265.582031 318.746094 C 264.792969 318.722656 264.523438 319.410156 264.117188 319.871094 C 253.902344 331.386719 241.054688 337.714844 225.8125 339.378906 C 213.109375 340.765625 200.378906 340.382812 187.644531 340.039062 C 185.386719 339.972656 183.125 339.847656 180.585938 339.742188 Z M 185.054688 337.25 C 186.9375 337.652344 188.882812 337.5625 190.808594 337.609375 C 203.453125 337.902344 216.113281 338.335938 228.683594 336.441406 C 243.515625 334.207031 255.402344 326.988281 264.429688 315.019531 C 265.1875 314.035156 265.613281 312.921875 265.703125 311.683594 C 266.289062 304.558594 268.246094 297.828125 271.566406 291.5 C 272.9375 288.875 272.992188 286.46875 272.269531 283.816406 C 270.078125 275.730469 264.589844 270.902344 256.902344 268.261719 C 249.804688 265.824219 242.421875 265.566406 235.035156 265.617188 C 225.144531 265.679688 215.253906 265.921875 205.363281 266.085938 C 202.726562 266.132812 202.710938 266.125 202.117188 268.5625 C 196.765625 290.617188 191.199219 312.617188 185.414062 334.5625 C 185.191406 335.410156 184.765625 336.242188 185.054688 337.25 Z M 288.382812 331.710938 C 295.371094 331.605469 302.058594 330.148438 308.453125 327.335938 C 325.453125 319.792969 336.203125 306.714844 341.714844 289.148438 C 343.402344 283.777344 344.363281 278.273438 343.699219 272.597656 C 342.851562 265.320312 338.324219 260.140625 331.222656 258.464844 C 325.890625 257.210938 320.550781 257.65625 315.308594 258.929688 C 298.5625 262.992188 286.164062 272.949219 277.152344 287.410156 C 276.660156 288.175781 276.398438 289.015625 276.367188 289.925781 C 276.25 293.917969 275.617188 297.832031 274.464844 301.660156 C 273.308594 305.484375 271.679688 309.097656 269.570312 312.492188 C 269.082031 313.167969 268.824219 313.921875 268.792969 314.753906 C 268.894531 320.742188 270.980469 326.609375 277.710938 329.726562 C 281.101562 331.296875 284.691406 331.753906 288.382812 331.710938 Z M 401.867188 246.769531 C 398.886719 247.296875 396.28125 247.910156 393.640625 248.171875 C 391.695312 248.367188 390.699219 249.253906 389.855469 250.964844 C 384.175781 262.453125 377.988281 273.664062 371.292969 284.597656 C 370.898438 285.242188 370.65625 286.050781 369.71875 286.53125 C 369.71875 284.183594 369.671875 282.035156 369.726562 279.886719 C 369.953125 271.371094 369.96875 262.855469 369.621094 254.34375 C 369.546875 252.582031 369.503906 252.578125 367.78125 252.871094 C 364.429688 253.441406 361.089844 254.117188 357.714844 254.550781 C 356.304688 254.730469 355.820312 255.40625 355.484375 256.621094 C 349.371094 278.527344 341.644531 299.84375 332.296875 320.574219 C 332.117188 320.980469 331.703125 321.394531 332.15625 321.933594 C 332.378906 321.941406 332.605469 321.929688 332.828125 321.894531 C 335.34375 321.265625 337.832031 320.484375 340.375 320.027344 C 342.363281 319.671875 343.378906 318.667969 344.167969 316.84375 C 350.558594 302.019531 356.289062 286.953125 361.1875 271.570312 C 361.378906 270.960938 361.386719 270.214844 362.242188 269.695312 C 362.375 280.210938 361.703125 290.472656 361.167969 301.035156 C 362.996094 300.570312 364.535156 300.109375 366.101562 299.792969 C 366.898438 299.640625 367.625 299.324219 368.28125 298.847656 C 368.9375 298.371094 369.460938 297.777344 369.851562 297.066406 C 376.027344 287.152344 381.902344 277.070312 387.375 266.75 C 387.671875 266.1875 387.851562 265.511719 388.757812 264.871094 C 384.355469 280.597656 379.050781 295.585938 373.199219 310.734375 C 376.128906 310.304688 378.457031 309.332031 380.894531 308.859375 C 382.527344 308.542969 383.320312 307.710938 383.894531 306.164062 C 389.859375 290.039062 395.078125 273.683594 399.433594 257.054688 C 400.296875 253.777344 401.273438 250.519531 401.867188 246.769531 Z M 401.867188 246.769531 " fill-opacity="1" fill-rule="nonzero"/></g><path fill="#5d2bff" d="M 344.074219 47.800781 C 344.546875 58.964844 345.023438 70.132812 345.484375 81.09375 C 345 81.734375 344.601562 81.515625 344.230469 81.421875 C 340.53125 80.507812 336.84375 79.550781 333.132812 78.695312 C 331.875 78.40625 331.519531 77.785156 331.492188 76.523438 C 331.171875 61.441406 330.789062 46.355469 330.4375 31.265625 C 330.414062 30.308594 330.269531 29.328125 330.695312 28.222656 C 335.621094 29.398438 340.492188 30.574219 345.375 31.710938 C 346.527344 31.976562 346.800781 32.925781 347.203125 33.792969 C 350.632812 41.230469 354.0625 48.667969 357.488281 56.105469 C 357.847656 56.882812 358.058594 57.769531 358.796875 58.476562 C 359.59375 57.824219 359.785156 56.929688 360.152344 56.167969 C 362.808594 50.699219 365.425781 45.207031 368.074219 39.734375 C 369.121094 37.574219 369.152344 37.578125 371.332031 38.113281 C 374.957031 39 378.558594 39.964844 382.199219 40.753906 C 383.429688 41.023438 383.757812 41.59375 383.765625 42.730469 C 383.785156 45.8125 383.871094 48.894531 383.957031 51.976562 C 384.296875 64.382812 384.640625 76.792969 384.984375 89.199219 C 385.011719 90.226562 385.230469 91.28125 384.777344 92.496094 C 381.261719 91.539062 377.761719 90.566406 374.246094 89.644531 C 373.917969 89.585938 373.648438 89.421875 373.441406 89.15625 C 373.234375 88.890625 373.144531 88.589844 373.171875 88.253906 C 373.128906 87.285156 373.046875 86.3125 373.011719 85.339844 C 372.648438 76.015625 372.285156 66.695312 371.925781 57.371094 C 371.910156 56.980469 371.867188 56.585938 371.835938 56.167969 C 370.988281 56.222656 370.988281 56.910156 370.796875 57.378906 C 368.796875 62.253906 366.8125 67.136719 364.835938 72.023438 C 364.023438 74.035156 364.027344 74.042969 361.878906 73.449219 C 360.238281 72.996094 358.621094 72.429688 356.957031 72.09375 C 355.503906 71.796875 354.832031 70.960938 354.277344 69.652344 C 351.457031 63.007812 348.539062 56.410156 345.648438 49.796875 C 345.335938 49.078125 344.960938 48.386719 344.617188 47.679688 Z M 344.074219 47.800781 " fill-opacity="1" fill-rule="nonzero"/><path fill="#5d2bff" d="M 314.511719 380.015625 C 315.457031 378.214844 316.324219 376.570312 317.183594 374.925781 C 325.140625 359.695312 333.09375 344.464844 340.304688 328.859375 C 340.773438 327.84375 341.320312 327.117188 342.480469 326.8125 C 346.710938 325.703125 350.917969 324.507812 355.140625 323.363281 C 355.679688 323.109375 356.207031 323.132812 356.722656 323.433594 C 356.28125 331.375 355.835938 339.417969 355.371094 347.769531 C 356.507812 347.164062 356.929688 346.359375 357.453125 345.695312 C 364.394531 336.914062 371.070312 327.9375 377.375 318.6875 C 377.75 318.0625 378.234375 317.539062 378.828125 317.113281 C 379.417969 316.691406 380.070312 316.402344 380.78125 316.25 C 383.941406 315.542969 387.050781 314.609375 390.183594 313.78125 C 390.796875 313.617188 391.40625 313.332031 392.113281 313.582031 C 392.214844 314.328125 391.839844 314.957031 391.597656 315.609375 C 385.207031 332.691406 378.046875 349.457031 370.6875 366.140625 C 370.464844 366.75 370.105469 367.257812 369.605469 367.667969 C 369.109375 368.078125 368.539062 368.332031 367.902344 368.433594 C 365.050781 369.039062 362.222656 369.753906 359.375 370.382812 C 358.769531 370.519531 358.144531 370.804688 357.257812 370.429688 C 362.0625 359.84375 367.03125 349.359375 371.648438 338.394531 C 370.445312 338.824219 370.144531 339.621094 369.695312 340.234375 C 364.917969 346.6875 359.984375 353.019531 355.011719 359.320312 C 354.558594 359.941406 354.007812 360.457031 353.355469 360.863281 C 352.707031 361.273438 352.003906 361.550781 351.25 361.691406 C 349.5 362.039062 347.78125 362.523438 346.042969 362.917969 C 344.28125 363.320312 344.230469 363.292969 344.34375 361.492188 C 344.695312 355.988281 345.078125 350.488281 345.449219 344.988281 C 345.480469 344.503906 345.511719 344.023438 345.554688 343.339844 C 344.503906 343.792969 344.402344 344.722656 344.050781 345.429688 C 339.050781 355.433594 334.035156 365.429688 329.109375 375.472656 C 328.355469 377.011719 327.390625 377.804688 325.703125 378.097656 C 322.511719 378.660156 319.363281 379.433594 316.195312 380.113281 C 315.621094 380.296875 315.058594 380.265625 314.511719 380.015625 Z M 314.511719 380.015625 " fill-opacity="1" fill-rule="nonzero"/><path fill="#5d2bff" d="M 82.476562 96.355469 C 82.199219 101.03125 81.882812 105.703125 81.648438 110.378906 C 81.40625 115.238281 81.25 120.101562 81.039062 124.960938 C 80.953125 126.871094 80.929688 126.882812 78.992188 127.191406 C 74.1875 127.949219 69.382812 128.699219 64.574219 129.4375 C 63.949219 129.535156 63.308594 129.539062 62.214844 129.617188 C 68.402344 117.964844 74.988281 106.972656 81.972656 96.214844 Z M 78.773438 105.410156 C 74.632812 112.089844 70.65625 118.738281 66.777344 125.984375 C 70.375 125.441406 73.480469 124.996094 76.574219 124.492188 C 78.316406 124.210938 78.304688 124.167969 78.402344 122.3125 C 78.664062 117.21875 78.933594 112.128906 79.1875 107.035156 C 79.207031 106.585938 79.429688 106.09375 78.773438 105.410156 Z M 78.773438 105.410156 " fill-opacity="1" fill-rule="nonzero"/><path fill="#5d2bff" d="M 19.53125 127.113281 C 19.957031 125.691406 20.378906 124.242188 20.832031 122.804688 C 22.285156 118.179688 23.804688 113.574219 25.1875 108.929688 C 25.25 108.617188 25.363281 108.320312 25.519531 108.042969 C 25.679688 107.765625 25.875 107.519531 26.113281 107.304688 C 26.351562 107.089844 26.617188 106.914062 26.90625 106.785156 C 27.199219 106.65625 27.503906 106.574219 27.824219 106.539062 C 29.964844 106.136719 32.015625 105.304688 34.191406 105.054688 C 37.914062 104.625 39.589844 106.183594 39.257812 109.882812 C 38.507812 118.179688 33.082031 124.828125 25.386719 126.207031 C 23.636719 126.519531 21.914062 126.964844 20.179688 127.335938 C 20.046875 127.363281 19.890625 127.242188 19.53125 127.113281 Z M 22.007812 124.347656 C 24.160156 123.855469 25.734375 123.574219 27.261719 123.136719 C 27.9375 122.953125 28.59375 122.71875 29.230469 122.433594 C 29.867188 122.148438 30.480469 121.8125 31.066406 121.433594 C 31.652344 121.054688 32.207031 120.628906 32.726562 120.164062 C 33.246094 119.695312 33.726562 119.195312 34.167969 118.652344 C 34.613281 118.113281 35.007812 117.539062 35.363281 116.9375 C 35.71875 116.335938 36.023438 115.707031 36.277344 115.058594 C 36.535156 114.40625 36.738281 113.742188 36.894531 113.058594 C 37.046875 112.378906 37.144531 111.6875 37.191406 110.992188 C 37.402344 108.429688 36.378906 107.3125 33.78125 107.664062 C 31.710938 107.945312 29.695312 108.601562 27.648438 109.058594 C 27.367188 109.125 27.125 109.261719 26.921875 109.46875 C 26.722656 109.675781 26.589844 109.921875 26.535156 110.207031 C 25.082031 114.734375 23.632812 119.257812 22.007812 124.347656 Z M 22.007812 124.347656 " fill-opacity="1" fill-rule="nonzero"/><path fill="#5d2bff" d="M 214.101562 136.15625 C 212.664062 136.15625 210.148438 136.179688 207.636719 136.148438 C 205.449219 136.121094 205.421875 136.085938 205.953125 133.929688 C 208.273438 124.488281 210.601562 115.050781 212.941406 105.613281 C 214.742188 98.382812 216.566406 91.15625 218.414062 83.933594 C 218.953125 81.808594 218.972656 81.773438 221.160156 81.832031 C 225.9375 81.957031 230.722656 81.984375 235.457031 82.789062 C 237.628906 83.144531 239.71875 83.761719 241.730469 84.644531 C 249.484375 88.121094 253.691406 94.0625 254.113281 102.585938 C 254.5625 111.648438 252.125 119.78125 245.851562 126.480469 C 240.726562 131.957031 234.265625 134.9375 226.828125 135.792969 C 222.59375 136.246094 218.351562 136.367188 214.101562 136.15625 Z M 218.203125 132.472656 C 222.667969 132.554688 227.144531 132.5 231.445312 131.125 C 244.539062 126.949219 252.457031 113.988281 250.417969 100.3125 C 249.453125 93.855469 245.902344 89.542969 239.949219 87.082031 C 238.285156 86.425781 236.574219 85.953125 234.808594 85.660156 C 231.359375 85.027344 227.863281 85.101562 224.386719 84.914062 C 221.90625 84.777344 221.894531 84.800781 221.3125 87.167969 C 218.707031 97.792969 216.105469 108.417969 213.507812 119.046875 C 212.546875 122.984375 211.589844 126.921875 210.675781 130.871094 C 210.34375 132.308594 210.441406 132.429688 211.878906 132.460938 C 213.984375 132.511719 216.09375 132.472656 218.203125 132.472656 Z M 218.203125 132.472656 " fill-opacity="1" fill-rule="nonzero"/><path fill="#5d2bff" d="M 329.984375 117.167969 C 329.902344 122.738281 328.847656 128.078125 326.128906 133.042969 C 319.308594 145.496094 304.132812 144.382812 297 135.988281 C 294.730469 133.367188 293.164062 130.375 292.296875 127.019531 C 290.351562 119.355469 290.089844 111.644531 292.078125 103.929688 C 292.53125 102.199219 293.152344 100.53125 293.945312 98.929688 C 298.257812 90.105469 306.824219 86.796875 315.964844 90.414062 C 317.820312 91.160156 319.519531 92.171875 321.066406 93.445312 C 322.609375 94.714844 323.929688 96.191406 325.015625 97.871094 C 326.972656 100.8125 328.28125 104.015625 328.945312 107.484375 C 329.585938 110.679688 329.929688 113.910156 329.984375 117.167969 Z M 294 115.648438 C 293.972656 117.9375 294.140625 120.210938 294.507812 122.46875 C 295.023438 126.035156 296.015625 129.449219 298.089844 132.453125 C 298.429688 132.949219 298.796875 133.417969 299.191406 133.867188 C 299.585938 134.316406 300.007812 134.738281 300.453125 135.136719 C 300.898438 135.535156 301.367188 135.90625 301.859375 136.25 C 302.351562 136.589844 302.859375 136.902344 303.386719 137.183594 C 303.914062 137.460938 304.460938 137.710938 305.015625 137.925781 C 305.574219 138.140625 306.144531 138.320312 306.722656 138.464844 C 307.304688 138.613281 307.890625 138.722656 308.484375 138.800781 C 309.078125 138.875 309.671875 138.914062 310.269531 138.917969 C 310.867188 138.921875 311.464844 138.890625 312.058594 138.824219 C 312.652344 138.753906 313.242188 138.652344 313.824219 138.511719 C 314.40625 138.375 314.976562 138.199219 315.535156 137.992188 C 316.097656 137.785156 316.644531 137.542969 317.175781 137.269531 C 317.707031 136.996094 318.222656 136.695312 318.714844 136.359375 C 319.210938 136.023438 319.683594 135.660156 320.136719 135.265625 C 320.585938 134.875 321.015625 134.457031 321.414062 134.011719 C 321.816406 133.570312 322.1875 133.101562 322.535156 132.613281 C 323.910156 130.683594 324.957031 128.585938 325.667969 126.324219 C 328.101562 118.539062 327.628906 110.800781 325.136719 103.132812 C 324.371094 100.875 323.183594 98.859375 321.574219 97.09375 C 314.625 89.214844 302.742188 90.390625 297.511719 99.476562 C 296.664062 100.960938 295.992188 102.519531 295.496094 104.15625 C 294.359375 107.90625 293.859375 111.738281 294 115.652344 Z M 294 115.648438 " fill-opacity="1" fill-rule="nonzero"/><path fill="#5d2bff" d="M 78.519531 272.566406 C 80.875 282.933594 83.539062 293.222656 86.5 303.722656 C 83.039062 303.3125 80.007812 302.511719 76.949219 301.875 C 74.574219 301.382812 72.203125 300.859375 69.839844 300.304688 C 68.007812 299.875 67.984375 299.835938 68.589844 298.0625 C 71.09375 290.703125 73.742188 283.398438 76.535156 276.144531 C 76.996094 274.945312 77.484375 273.757812 77.960938 272.566406 Z M 78.085938 281.839844 C 77.773438 281.984375 77.550781 282.015625 77.511719 282.121094 C 75.664062 287.042969 73.84375 291.976562 72 296.902344 C 71.644531 297.847656 72.042969 298.226562 72.925781 298.40625 C 75.699219 298.96875 78.464844 299.558594 81.238281 300.132812 C 81.765625 300.242188 82.3125 300.578125 82.898438 299.992188 C 81.304688 293.984375 79.703125 287.933594 78.085938 281.839844 Z M 78.085938 281.839844 " fill-opacity="1" fill-rule="nonzero"/><path fill="#5d2bff" d="M 21.671875 258.828125 C 24.574219 259.488281 27.566406 259.730469 30.347656 260.910156 C 31.527344 261.390625 32.570312 262.078125 33.480469 262.964844 C 34.390625 263.851562 35.101562 264.878906 35.609375 266.042969 C 36.933594 268.984375 37.574219 272.046875 37.066406 275.261719 C 36.527344 278.707031 34.253906 280.527344 30.769531 280.265625 C 27.847656 280.050781 25.082031 279.03125 22.238281 278.410156 C 21.949219 278.359375 21.714844 278.21875 21.527344 277.992188 C 21.34375 277.765625 21.253906 277.503906 21.257812 277.210938 C 21.085938 275.855469 21.355469 260.417969 21.671875 258.828125 Z M 23.140625 261.855469 C 23.125 266.46875 23.109375 270.886719 23.097656 275.304688 C 23.09375 275.558594 23.179688 275.78125 23.351562 275.972656 C 23.519531 276.164062 23.730469 276.273438 23.984375 276.300781 C 26.261719 276.820312 28.476562 277.667969 30.871094 277.535156 C 32.628906 277.4375 33.976562 276.707031 34.726562 275.0625 C 36.503906 271.15625 34.242188 265.222656 30.273438 263.539062 C 28.117188 262.625 25.796875 262.324219 23.140625 261.855469 Z M 23.140625 261.855469 " fill-opacity="1" fill-rule="nonzero"/><path fill="#5d2bff" d="M 205.542969 328.417969 C 205.355469 327.664062 205.742188 327 205.945312 326.316406 C 210.527344 311.027344 214.890625 295.671875 219.035156 280.257812 C 219.640625 278.007812 219.652344 277.988281 221.945312 277.957031 C 225.996094 277.898438 230.050781 277.828125 234.101562 277.855469 C 237.046875 277.84375 239.910156 278.324219 242.691406 279.296875 C 249.941406 281.898438 253.949219 287.269531 253.6875 295.007812 C 253.242188 308.117188 247.316406 318.039062 235.683594 324.375 C 230.660156 327.113281 225.191406 328.1875 219.566406 328.488281 C 215.277344 328.714844 210.976562 328.65625 206.683594 328.71875 C 206.257812 328.789062 205.878906 328.6875 205.542969 328.417969 Z M 216.117188 326.023438 C 218.789062 325.773438 221.457031 325.652344 224.117188 325.285156 C 224.996094 325.164062 225.871094 325.003906 226.734375 324.808594 C 227.601562 324.609375 228.457031 324.375 229.300781 324.101562 C 230.144531 323.828125 230.976562 323.519531 231.792969 323.171875 C 232.609375 322.828125 233.410156 322.445312 234.195312 322.03125 C 234.980469 321.613281 235.742188 321.164062 236.488281 320.679688 C 237.230469 320.195312 237.953125 319.679688 238.652344 319.132812 C 239.351562 318.582031 240.023438 318.007812 240.671875 317.398438 C 241.320312 316.792969 241.9375 316.160156 242.53125 315.496094 C 243.121094 314.835938 243.683594 314.148438 244.214844 313.4375 C 244.746094 312.726562 245.246094 311.992188 245.714844 311.238281 C 246.179688 310.484375 246.613281 309.710938 247.011719 308.917969 C 247.410156 308.125 247.773438 307.316406 248.101562 306.488281 C 248.429688 305.664062 248.71875 304.828125 248.972656 303.976562 C 249.226562 303.125 249.441406 302.265625 249.617188 301.394531 C 249.796875 300.523438 249.933594 299.648438 250.035156 298.765625 C 250.136719 297.886719 250.199219 297 250.21875 296.113281 C 250.398438 288.410156 246.316406 283.359375 238.746094 281.820312 C 234.316406 280.921875 229.855469 281.246094 225.398438 281.335938 C 222.488281 281.390625 222.714844 280.808594 221.8125 284.023438 C 219.625 291.832031 217.40625 299.632812 215.15625 307.425781 C 213.511719 313.113281 211.777344 318.773438 210.105469 324.453125 C 209.691406 325.863281 209.789062 325.984375 211.25 326.015625 C 212.871094 326.050781 214.496094 326.023438 216.121094 326.023438 Z M 216.117188 326.023438 " fill-opacity="1" fill-rule="nonzero"/><path fill="#5d2bff" d="M 286.703125 310.863281 C 288.085938 296.089844 293.816406 283.550781 305.824219 274.351562 C 309.828125 271.285156 314.398438 269.464844 319.574219 269.589844 C 324.667969 269.714844 327.902344 272.382812 329.03125 277.363281 C 329.582031 280.09375 329.621094 282.832031 329.152344 285.574219 C 327.710938 295.644531 323.738281 304.535156 316.800781 312.019531 C 312.414062 316.753906 307.21875 320.222656 300.792969 321.589844 C 299.117188 321.945312 297.425781 322.066406 295.714844 321.949219 C 290.875 321.628906 287.988281 319.058594 287.039062 314.277344 C 286.855469 313.148438 286.742188 312.007812 286.703125 310.863281 Z M 326.726562 282.832031 C 326.726562 282.507812 326.734375 282.183594 326.726562 281.859375 C 326.535156 275.042969 322.820312 271.925781 316.128906 272.988281 C 311.472656 273.726562 307.613281 276.042969 304.238281 279.210938 C 296.890625 286.101562 292.523438 294.628906 290.59375 304.457031 C 290.042969 307.253906 289.671875 310.066406 290.097656 312.917969 C 290.667969 316.761719 293.027344 319.003906 296.910156 319.300781 C 297.960938 319.367188 299.011719 319.324219 300.058594 319.167969 C 302.242188 318.855469 304.335938 318.230469 306.335938 317.304688 C 308.339844 316.375 310.167969 315.179688 311.816406 313.714844 C 321.28125 305.613281 325.773438 295.066406 326.726562 282.832031 Z M 326.726562 282.832031 " fill-opacity="1" fill-rule="nonzero"/></svg>